<?xml version="1.0" standalone="no"?><!DOCTYPE svg PUBLIC "-//W3C//DTD SVG 1.1//EN" "http://www.w3.org/Graphics/SVG/1.1/DTD/svg11.dtd"><svg t="1538899045587" class="icon" style="" viewBox="0 0 1024 1024" version="1.1" xmlns="http://www.w3.org/2000/svg" p-id="2458" xmlns:xlink="http://www.w3.org/1999/xlink" width="62" height="62"><defs><style type="text/css"></style></defs><path d="M512 65.983389c-245.952318 0-446.016611 200.064292-446.016611 446.016611S266.047682 958.016611 512 958.016611 958.016611 757.952318 958.016611 512 757.952318 65.983389 512 65.983389zM544.00086 736.00086c0 17.695686-14.303454 32.00086-32.00086 32.00086s-32.00086-14.303454-32.00086-32.00086L479.99914 448c0-17.695686 14.303454-32.00086 32.00086-32.00086 17.695686 0 32.00086 14.303454 32.00086 32.00086L544.00086 736.00086zM512 352.00086c-26.496224 0-48.00043-21.53689-48.00043-48.00043 0-26.527187 21.504206-48.00043 48.00043-48.00043s48.00043 21.471523 48.00043 48.00043C560.00043 330.46397 538.496224 352.00086 512 352.00086z" p-id="2459"></path></svg>