<svg id="图层_1" data-name="图层 1" xmlns="http://www.w3.org/2000/svg" viewBox="0 0 62 62"><title>南极商家首页icon</title><path d="M56,27.51168a1.74428,1.74428,0,0,0-3.48857,0c0,9.93806-9.64977,18.02325-21.51147,18.02325-.03078,0-.05913.00733-.08942.009a1.72731,1.72731,0,0,0-1.10345.33945l-6.51169,4.88408V46.11625a1.73649,1.73649,0,0,0-.02534-.25143,1.74431,1.74431,0,0,0-1.10241-1.91687C14.46528,41.03233,9.48829,34.581,9.48829,27.51168a1.74414,1.74414,0,1,0-3.48829,0c0,8.17385,5.38115,15.61064,13.80691,19.24014v7.50387a1.74425,1.74425,0,0,0,2.79074,1.39551l8.85059-6.63782C45.02613,48.80613,56,39.24417,56,27.51168Zm0,0"/><path d="M8.15979,23.33743a1.7442,1.7442,0,0,0,2.23294-1.04761c2.72534-7.53717,11.19305-12.8016,20.59307-12.8016,9.44014,0,17.91875,5.29333,20.61847,12.872a1.74424,1.74424,0,1,0,3.28621-1.17061C51.65418,12.104,42.04748,6,30.9858,6,19.97214,6,10.37856,12.0699,7.11225,21.10421a1.74413,1.74413,0,0,0,1.04754,2.23322Zm0,0"/><path d="M28.60428,27.40622a2.39575,2.39575,0,1,0,2.39588-2.39587,2.396,2.396,0,0,0-2.39588,2.39587Zm0,0"/><path d="M16.627,27.40622a2.39588,2.39588,0,1,0,2.39588-2.39587A2.39591,2.39591,0,0,0,16.627,27.40622Zm0,0"/><path d="M42.97709,25.01034a2.39588,2.39588,0,1,0,2.39685,2.397,2.39336,2.39336,0,0,0-2.39685-2.397Zm0,0"/><path d="M56,27.51168a1.74428,1.74428,0,0,0-3.48857,0c0,9.93806-9.64977,18.02325-21.51147,18.02325-.03078,0-.05913.00733-.08942.009a1.72731,1.72731,0,0,0-1.10345.33945l-6.51169,4.88408V46.11625a1.73649,1.73649,0,0,0-.02534-.25143,1.74431,1.74431,0,0,0-1.10241-1.91687C14.46528,41.03233,9.48829,34.581,9.48829,27.51168a1.74414,1.74414,0,1,0-3.48829,0c0,8.17385,5.38115,15.61064,13.80691,19.24014v7.50387a1.74425,1.74425,0,0,0,2.79074,1.39551l8.85059-6.63782C45.02613,48.80613,56,39.24417,56,27.51168Zm0,0"/><path d="M8.15979,23.33743a1.7442,1.7442,0,0,0,2.23294-1.04761c2.72534-7.53717,11.19305-12.8016,20.59307-12.8016,9.44014,0,17.91875,5.29333,20.61847,12.872a1.74424,1.74424,0,1,0,3.28621-1.17061C51.65418,12.104,42.04748,6,30.9858,6,19.97214,6,10.37856,12.0699,7.11225,21.10421a1.74413,1.74413,0,0,0,1.04754,2.23322Zm0,0"/><path d="M28.60428,27.40622a2.39575,2.39575,0,1,0,2.39588-2.39587,2.396,2.396,0,0,0-2.39588,2.39587Zm0,0"/><path d="M16.627,27.40622a2.39588,2.39588,0,1,0,2.39588-2.39587A2.39591,2.39591,0,0,0,16.627,27.40622Zm0,0"/><path d="M42.97709,25.01034a2.39588,2.39588,0,1,0,2.39685,2.397,2.39336,2.39336,0,0,0-2.39685-2.397Zm0,0"/></svg>