<svg id="图层_1" data-name="图层 1" xmlns="http://www.w3.org/2000/svg" viewBox="0 0 62 62"><title>南极商家首页icon</title><path d="M15.15541,6.28437a12.68914,12.68914,0,0,0-8.85248,8.85277,11.78626,11.78626,0,0,0,11.48425,14.4007H29.55639V17.26419h-.01465A11.7799,11.7799,0,0,0,15.15541,6.28437ZM26.63252,26.61386H17.78717a8.84568,8.84568,0,1,1,8.84535-8.84525Zm0,0"/><path d="M55.6973,15.13713a12.689,12.689,0,0,0-8.85238-8.85277A11.78371,11.78371,0,0,0,32.45858,17.2717h-.01474V29.53783H44.21306A11.78965,11.78965,0,0,0,55.6973,15.13713ZM35.36781,17.7686a8.84573,8.84573,0,1,1,8.84525,8.84525H35.36781Zm0,0"/><path d="M6.30293,46.86288a12.68916,12.68916,0,0,0,8.85248,8.85277A11.78371,11.78371,0,0,0,29.54174,44.72831h.01465V32.46218H17.78717A11.78626,11.78626,0,0,0,6.30293,46.86288ZM26.63252,44.2314a8.84573,8.84573,0,1,1-8.84535-8.84525h8.84535Zm0,0"/><path d="M44.21306,32.46218H32.44384V44.72831h.01474A11.78666,11.78666,0,0,0,46.84492,55.71565a12.689,12.689,0,0,0,8.85238-8.85277,11.78965,11.78965,0,0,0-11.48424-14.4007ZM53.0584,44.35563a8.84573,8.84573,0,0,1-17.6906-.12423V35.38615h8.84525a8.84708,8.84708,0,0,1,8.84534,8.96947Zm0,0"/></svg>