<svg id="图层_1" data-name="图层 1" xmlns="http://www.w3.org/2000/svg" viewBox="0 0 62 62"><title>南极商家首页icon</title><path d="M52.7064,11.63253a2.17952,2.17952,0,0,0-3.07059,0l-6.64394,6.64689-.00415-.00388L30.99522,30.26859,12.36008,11.63253a2.16872,2.16872,0,0,0-3.06353,3.07053l6.48473,6.48506-.00213.002L29.31056,34.7222a2.51837,2.51837,0,0,0,3.30921.056l2.07287-2.073h.006L52.7064,14.70306A2.17975,2.17975,0,0,0,52.7064,11.63253Z"/><path d="M52.7064,27.22986a2.17952,2.17952,0,0,0-3.07059,0l-6.64394,6.64689-.00415-.00388L30.99522,45.86592,12.36008,27.22986a2.16872,2.16872,0,1,0-3.06353,3.07053l6.48473,6.48506-.00213.002L29.31056,50.31953a2.51837,2.51837,0,0,0,3.30921.056l2.07287-2.073h.006L52.7064,30.30039A2.17975,2.17975,0,0,0,52.7064,27.22986Z"/></svg>