<svg xmlns="http://www.w3.org/2000/svg" viewBox="0 0 62 62"><path d="M55.8,26.89l-4.34-3.77V18.24a1.74,1.74,0,1,0-3.49,0v1.85L32.55,6.68h0a1.74,1.74,0,0,0-.36-.24h-.6a1.74,1.74,0,0,0-.81.13H30.5l-16,13.91V18.82a1.75,1.75,0,0,0-3.49,0v4.79L7,26.89a1.74,1.74,0,0,0,2.29,2.63h0L31.4,10.31,53.51,29.53A1.74,1.74,0,0,0,55.8,26.9h0Z"/><path d="M50,29.66a1.74,1.74,0,0,0-1.74,1.74V48.73c0,2.19-1.5,4-3.28,4H17.82c-1.78,0-3.28-1.85-3.28-4V31.4a1.75,1.75,0,0,0-3.49,0V48.73c0,4.15,3,7.52,6.77,7.52H45c3.73,0,6.77-3.37,6.77-7.52V31.4A1.74,1.74,0,0,0,50,29.66Z"/></svg>
