<svg id="图层_1" data-name="图层 1" xmlns="http://www.w3.org/2000/svg" viewBox="0 0 62 62"><title>南极商家首页icon</title><path d="M55.39966,26.64357l-4.34058-3.77315V17.98691a1.74292,1.74292,0,1,0-3.48584,0v1.85335L32.14453,6.42817,32.14181,6.426a1.74013,1.74013,0,0,0-.36242-.24215l-.00021-.00028c-.02373-.01173-.04746-.0229-.07148-.0335l-.00789-.00356c-.02129-.00928-.04279-.018-.06436-.02646l-.01584-.00628c-.01905-.00733-.03839-.0139-.05752-.02046l-.02345-.00816-.05207-.01557-.02974-.00872-.05012-.0125L31.3753,6.041c-.01766-.00411-.03539-.00711-.05312-.01061L31.293,6.02491c-.02018-.00356-.04063-.00628-.06108-.009l-.021-.003q-.038-.00451-.07609-.0074l-.00628-.00077a1.74254,1.74254,0,0,0-.81174.13465l-.00873.00356c-.01822.00789-.03651.01662-.0548.02506l-.02506.012-.0393.02045-.03923.02074-.02618.01528-.05047.03023L30.057,6.2774c-.01968.0125-.039.02533-.05836.03895l-.01012.0074c-.02073.01473-.04119.03-.06136.04551l-.009.0074c-.01989.01577-.03951.0319-.05885.04879l-.00356.00272L13.85822,20.33432V18.56823a1.74289,1.74289,0,1,0-3.48577,0v4.65121c0,.04711.00244.09353.006.13989L6.60007,26.64357a1.744,1.744,0,1,0,2.28878,2.63207L31.00011,10.05522,53.11144,29.27564a1.74383,1.74383,0,0,0,2.28822-2.63207Zm0,0"/><path d="M49.60466,29.40793a1.7442,1.7442,0,0,0-1.74425,1.74425V48.47981c0,2.1854-1.50377,4.03163-3.284,4.03163H17.42363c-1.78026,0-3.284-1.84623-3.284-4.03163V31.15217a1.74411,1.74411,0,0,0-3.48821,0V48.47981C10.65138,52.62626,13.68943,56,17.42363,56H44.57637c3.7342,0,6.77225-3.37374,6.77225-7.52019V31.15217a1.74414,1.74414,0,0,0-1.744-1.74425Zm0,0"/></svg>