<svg id="图层_1" data-name="图层 1" xmlns="http://www.w3.org/2000/svg" viewBox="0 0 62 62"><title>南极商家首页icon</title><path d="M23.11838,38.13536c-.01124-.00928-.0194-.021-.03085-.03-3.82458-3.0241-5.45633-6.12015-5.45633-10.35179a1.74419,1.74419,0,0,0-3.48838,0,15.30213,15.30213,0,0,0,5.25043,11.77226c-5.43448,4.25969-8.45146,8.62546-9.92568,14.29006A1.74431,1.74431,0,0,0,10.716,55.94326,1.77168,1.77168,0,0,0,11.15663,56a1.74555,1.74555,0,0,0,1.68682-1.30511c1.40512-5.39994,4.50285-9.487,10.35695-13.66742a1.74077,1.74077,0,0,0-.082-2.89211Zm0,0"/><path d="M52.53088,53.81017c-1.48887-5.642-4.46258-9.97175-9.77764-14.15947a15.28,15.28,0,0,0,5.37069-11.89685,1.74419,1.74419,0,1,0-3.48838,0c0,4.2294-1.7051,7.44111-5.51935,10.399a1.725,1.725,0,0,0-.6216.52975,1.74375,1.74375,0,0,0,.406,2.43272c5.83937,4.17,8.81168,8.10556,10.2577,13.58506a1.744,1.744,0,1,0,3.37258-.89017Zm0,0"/><path d="M15.64915,24.10431a1.74675,1.74675,0,0,0,1.42152-2.01262c-.00845-.04907-.7942-4.94187,2.23129-8.52188,2.2888-2.70842,6.21368-4.08164,11.66589-4.08164,5.45661,0,9.39133,1.37567,11.69513,4.08876,3.04266,3.58246,2.282,8.47414,2.27464,8.51665a1.74432,1.74432,0,1,0,3.43819.5911c.045-.26257,1.05845-6.48665-3.02326-11.33C42.3582,7.80156,37.518,6,30.96786,6c-6.54954,0-11.38071,1.80135-14.36041,5.35407C12.543,16.201,13.5883,22.43,13.63493,22.69284a1.74165,1.74165,0,0,0,2.01423,1.41147Zm0,0"/></svg>