<svg xmlns="http://www.w3.org/2000/svg" viewBox="0 0 62 62"><path d="M49.56,34.1a1.74,1.74,0,0,0-1.74,1.74h0V48.49c0,2.18-1.5,4-3.27,4H17.45c-1.77,0-3.27-1.84-3.27-4V35.84a1.74,1.74,0,1,0-3.49,0V48.49c0,4.14,3,7.51,6.76,7.51h27.1c3.73,0,6.76-3.37,6.76-7.51V35.84a1.74,1.74,0,0,0-1.74-1.74h0Z"/><path d="M55.44,18.24h0L55.36,18a1.75,1.75,0,0,0-.26-.47l-3.77-7.3A7,7,0,0,0,44.85,6H17.26c-3.06,0-4.9,1.21-6.34,4.16h0c-.17.28-.37.64-.62,1.11L8.85,13.92c-2.18,4-2.23,4.13-2.29,4.3A8.63,8.63,0,0,0,6,21.75a11,11,0,0,0,5.74,9.63h.08A11.22,11.22,0,0,0,24,30a10.81,10.81,0,0,0,14,0,10.92,10.92,0,0,0,18-8.33,8.42,8.42,0,0,0-.55-3.44ZM52.5,21.67a7.48,7.48,0,0,1-13.19,4.75A1.74,1.74,0,0,0,38,25.8h0a1.74,1.74,0,0,0-1.34.62,7.35,7.35,0,0,1-11.3,0A1.74,1.74,0,0,0,24,25.8h0a1.74,1.74,0,0,0-1.33.62,7.7,7.7,0,0,1-9.16,1.91h-.07a7.47,7.47,0,0,1-4-6.6,5.26,5.26,0,0,1,.33-2.22c.39-.79,4-7.3,4.19-7.7l.05-.1c.92-1.88,1.6-2.2,3.2-2.2H44.8a3.56,3.56,0,0,1,3.36,2.3h0l4,7.71a5.09,5.09,0,0,1,.3,2.14Z"/></svg>
