<svg id="图层_1" data-name="图层 1" xmlns="http://www.w3.org/2000/svg" viewBox="0 0 62 62"><title>南极商家首页icon</title><path d="M49.56659,34.097a1.74377,1.74377,0,0,0-1.744,1.744V48.49145c0,2.17947-1.49938,4.02054-3.27392,4.02054H17.45156c-1.77475,0-3.2742-1.84135-3.2742-4.02054V35.841a1.744,1.744,0,0,0-3.488,0V48.49145C10.68936,52.6317,13.72308,56,17.45129,56H44.5487c3.72877,0,6.76194-3.3683,6.76194-7.50855V35.841a1.74379,1.74379,0,0,0-1.744-1.744Zm0,0"/><path d="M55.44621,18.23605l-.00245-.00572-.081-.22142a1.753,1.753,0,0,0-.26015-.47006l-3.76611-7.29858A7.01608,7.01608,0,0,0,44.85438,6H17.26428c-3.06374,0-4.90041,1.20571-6.33906,4.16259l.0104.00489c-.16934.27761-.36731.63835-.625,1.107-.39348.71716-.91917,1.67556-1.44821,2.64408-2.17584,3.98124-2.22987,4.12824-2.29283,4.29975a8.62877,8.62877,0,0,0-.56771,3.48361A10.9563,10.9563,0,0,0,11.737,31.33481c.02618.01529.05291.03085.0802.04558A10.85231,10.85231,0,0,0,16.981,32.58094a10.95487,10.95487,0,0,0,7.03514-2.57344,10.808,10.808,0,0,0,13.97025-.00684,10.91606,10.91606,0,0,0,18.01089-8.32818,8.41959,8.41959,0,0,0-.551-3.43643ZM52.5093,21.66571a7.47753,7.47753,0,0,1-13.18852,4.75452,1.74277,1.74277,0,0,0-1.33527-.62223H37.985a1.7439,1.7439,0,0,0-1.33611.62334,7.34575,7.34575,0,0,1-11.30187.00572,1.74311,1.74311,0,0,0-1.33367-.62062h-.0016a1.74427,1.74427,0,0,0-1.33443.62279,7.69737,7.69737,0,0,1-9.1571,1.9057c-.02206-.01312-.04446-.02541-.06708-.03791a7.473,7.473,0,0,1-3.96323-6.597,5.25633,5.25633,0,0,1,.331-2.21626c.39292-.79073,3.96763-7.29914,4.18981-7.69883q.02659-.047.05047-.09654C14.97738,9.80589,15.66481,9.488,17.26428,9.488h27.586a3.55909,3.55909,0,0,1,3.35845,2.297l.01885.03734,3.9774,7.70812a5.08735,5.08735,0,0,1,.30435,2.13529Zm0,0"/></svg>