<svg id="图层_1" data-name="图层 1" xmlns="http://www.w3.org/2000/svg" viewBox="0 0 62 62"><title>南极商家首页icon</title><path d="M49.56542,25.34015a3.9086,3.9086,0,0,0-3.07962-1.425H37.851l1.59081-9.30451a4.64135,4.64135,0,0,0-3.27538-5.47143,4.27928,4.27928,0,0,0-3.53363.63868,4.58674,4.58674,0,0,0-1.89663,3.08784c-1.39452,9.43567-6.79335,10.869-9.04992,11.041-.03134,0-.05472.00838-.08607.00838h-6.5818A3.6,3.6,0,0,0,11.5,27.59257V49.32263A3.6,3.6,0,0,0,15.01837,53h27.4322a4.95037,4.95037,0,0,0,3.30683-1.335,5.46607,5.46607,0,0,0,1.755-3.2349L50.44308,28.8052A4.37634,4.37634,0,0,0,49.56542,25.34015ZM19.84495,50.07254H15.01827a.73575.73575,0,0,1-.71771-.75023V27.593a.73575.73575,0,0,1,.71771-.75023h4.82668ZM47.67705,28.34238,44.74537,47.9748a2.52912,2.52912,0,0,1-2.30276,2.09774H22.64591V26.73019a11.30287,11.30287,0,0,0,5.52959-2.49649c2.80837-2.35039,4.59895-6.02508,5.31995-10.92266a1.60075,1.60075,0,0,1,1.58094-1.38016,1.52848,1.52848,0,0,1,.39544.05156A1.73127,1.73127,0,0,1,36.69022,14.026L34.49433,26.8505H46.4784a1.19369,1.19369,0,0,1,.95037.40563A1.315,1.315,0,0,1,47.67705,28.34238Z"/></svg>