<svg id="图层_1" data-name="图层 1" xmlns="http://www.w3.org/2000/svg" viewBox="0 0 100 100"><title>南极商家首页icon</title><path d="M50.00012,6.96594A43.03406,43.03406,0,1,0,93.034,50,43.03405,43.03405,0,0,0,50.00012,6.96594ZM30.57719,23.77906H69.42306a1.94227,1.94227,0,0,1,0,3.88454H30.57719a1.94227,1.94227,0,1,1,0-3.88454ZM70.78256,54.27327a1.87769,1.87769,0,0,1-2.71925,0l-16.121-16.12141v36.127a1.94227,1.94227,0,0,1-3.88454,0V38.15217L31.93657,54.27327a1.92286,1.92286,0,1,1-2.71913-2.71956L48.64037,32.13078a1.87765,1.87765,0,0,1,2.71913,0L70.78256,51.55372A1.87785,1.87785,0,0,1,70.78256,54.27327Z"/></svg>